<?xml version="1.0" encoding="utf-8"?>
<!-- Generator: Adobe Illustrator 19.0.0, SVG Export Plug-In . SVG Version: 6.00 Build 0)  -->
<svg version="1.1" id="Capa_1" xmlns="http://www.w3.org/2000/svg" xmlns:xlink="http://www.w3.org/1999/xlink" x="0px" y="0px"
	 viewBox="206 -206 512 512" style="enable-background:new 206 -206 512 512;" xml:space="preserve">
<style type="text/css">
	.st0{fill:#F6B778;}
	.st1{fill:#DDA46C;}
	.st2{fill:#3B484A;}
	.st3{fill:#8B6C52;}
	.st4{fill:#654D3B;}
</style>
<g>
	<path class="st0" d="M673.3,31.4c6.5-25.4-0.7-52.3-19-71l0,0c-3.9-4-7.4-8.5-10.3-13.3c-24.1,12.9-55.5-2.7-57.9-31.8l0,0l0,0
		c-28.3-2.4-43.9-32.2-32.7-56c-0.6-0.5-1.2-1.1-1.8-1.7l0,0c-18.7-18.3-45.7-25.5-71-19l0,0c-12.2,3.1-24.9,3.1-37.1,0l0,0
		c-25.4-6.5-52.3,0.7-71,19l0,0c-9,8.8-20,15.2-32.1,18.6l0,0c-25.2,7.1-44.9,26.8-52,52l0,0c-3.4,12.1-9.8,23.1-18.6,32.1l0,0
		c-18.3,18.7-25.5,45.7-19,71l0,0c3.1,12.2,3.1,24.9,0,37.1l0,0c-6.5,25.4,0.7,52.3,19,71l0,0c8.8,9,15.2,20,18.6,32.1l0,0
		c7.1,25.2,26.8,44.9,52,52l0,0c12.1,3.4,23.1,9.8,32.1,18.6l0,0c18.7,18.3,45.7,25.5,71,19l0,0c12.2-3.1,24.9-3.1,37.1,0l0,0
		c25.4,6.5,52.3-0.7,71-19l0,0c9-8.8,20-15.2,32.1-18.6l0,0c25.2-7.1,44.9-26.8,52-52l0,0c3.4-12.1,9.8-23.1,18.6-32.1l0,0
		c18.3-18.7,25.5-45.7,19-71l0,0C670.2,56.4,670.2,43.6,673.3,31.4L673.3,31.4z"/>
	<path class="st1" d="M406.8,242.3L406.8,242.3c-9-8.8-20-15.2-32.1-18.6l0,0c-25.2-7.1-44.9-26.8-52-52l0,0
		c-3.4-12.1-9.8-23.1-18.6-32.1l0,0c-18.3-18.7-25.5-45.7-19-71l0,0c3.1-12.2,3.1-24.9,0-37.1l0,0c-6.5-25.4,0.7-52.3,19-71l0,0
		c8.8-9,15.2-20,18.6-32.1l0,0c7.1-25.2,26.8-44.9,52-52l0,0c12.1-3.4,23.1-9.8,32.1-18.6l0,0c9.9-9.7,22.2-16.3,35.3-19.4
		c-25-5.9-51.3,1.4-69.7,19.4l0,0c-9,8.8-20,15.2-32.1,18.6l0,0c-25.2,7.1-44.9,26.8-52,52l0,0c-3.4,12.1-9.8,23.1-18.6,32.1l0,0
		c-18.3,18.7-25.5,45.7-19,71l0,0c3.1,12.2,3.1,24.9,0,37.1l0,0c-6.5,25.4,0.7,52.3,19,71l0,0c8.8,9,15.2,20,18.6,32.1l0,0
		c7.1,25.2,26.8,44.9,52,52l0,0c12.1,3.4,23.1,9.8,32.1,18.6l0,0c18.4,18,44.7,25.2,69.7,19.4C429,258.6,416.7,252,406.8,242.3z"/>
	<g>
		<path class="st2" d="M384.7,58.3c-3.6,0-6.4-2.9-6.4-6.4v-14c0-3.6,2.9-6.4,6.4-6.4c3.6,0,6.4,2.9,6.4,6.4v14
			C391.1,55.4,388.3,58.3,384.7,58.3z"/>
		<path class="st2" d="M539.3,58.3c-3.6,0-6.4-2.9-6.4-6.4v-14c0-3.6,2.9-6.4,6.4-6.4s6.4,2.9,6.4,6.4v14
			C545.7,55.4,542.9,58.3,539.3,58.3z"/>
		<path class="st2" d="M462,68.6c-11,0-21.3-4.6-28.3-12.6c-2.3-2.7-2.1-6.8,0.6-9.1c2.7-2.3,6.8-2.1,9.1,0.6
			c4.5,5.2,11.3,8.2,18.6,8.2c7.3,0,14-3,18.6-8.2c2.3-2.7,6.4-3,9.1-0.6c2.7,2.3,3,6.4,0.6,9.1C483.3,64,473,68.6,462,68.6z"/>
	</g>
	<g>
		<ellipse class="st3" cx="408.9" cy="-85.4" rx="29.2" ry="22.4"/>
		<ellipse class="st3" cx="349.7" cy="123.2" rx="29.2" ry="22.4"/>
		<ellipse class="st3" cx="552.2" cy="159.3" rx="29.2" ry="22.4"/>
	</g>
	<g>
		<ellipse class="st4" cx="438.6" cy="181.7" rx="20.4" ry="15.7"/>
		<ellipse class="st4" cx="522.5" cy="-53.4" rx="20.4" ry="15.7"/>
		<ellipse class="st4" cx="320.6" cy="6.1" rx="20.4" ry="15.7"/>
		<ellipse class="st4" cx="614" cy="62.2" rx="20.4" ry="15.7"/>
	</g>
</g>
</svg>
